<?xml version="1.0" standalone="no"?>
<!DOCTYPE svg PUBLIC "-//W3C//DTD SVG 20010904//EN"
 "http://www.w3.org/TR/2001/REC-SVG-20010904/DTD/svg10.dtd">
<svg version="1.0" xmlns="http://www.w3.org/2000/svg"
 width="30.000000pt" height="30.000000pt" viewBox="0 0 30.000000 30.000000"
 preserveAspectRatio="xMidYMid meet">
<metadata>
Created by potrace 1.14, written by Peter Selinger 2001-2017
</metadata>
<g transform="translate(0.000000,30.000000) scale(0.100000,-0.100000)"
fill="#000000" stroke="none">
<path d="M39 224 l-1 -29 -8 25 c-6 17 -8 0 -9 -56 -1 -89 7 -104 53 -104 17
0 40 -9 53 -22 l23 -21 23 21 c13 13 36 22 53 22 46 0 54 15 53 104 -1 53 -4
72 -9 56 l-7 -25 -4 29 c-4 27 -5 29 -20 14 -13 -13 -19 -14 -29 -5 -7 7 -5 0
6 -15 10 -15 22 -28 27 -28 33 -1 -47 -85 -91 -94 -31 -7 -102 15 -102 32 0 5
14 6 31 4 17 -3 30 -1 27 4 -25 51 -38 87 -35 91 3 2 19 -3 36 -11 40 -21 44
-20 36 7 -4 12 -3 17 2 10 6 -8 13 -7 28 4 19 14 18 14 -15 8 -57 -11 -94 -12
-107 -2 -10 7 -13 2 -14 -19z"/>
</g>
</svg>
